<svg width="1920" height="83" viewBox="0 0 1920 83" fill="none" xmlns="http://www.w3.org/2000/svg">
<path d="M-15.8398 27.2232L910.465 27.0027C917.685 27.0009 924.664 29.6033 930.12 34.332L939.512 42.4718C950.788 52.2442 967.532 52.2442 978.808 42.4718L988.2 34.332C993.656 29.6033 1000.64 27.0009 1007.86 27.0027L1935.16 27.2232V83H-15.8398V27.2232Z" fill="#1D3FA3"/>
<rect x="941.16" width="38" height="38" rx="19" fill="url(#paint0_linear_6046_1839)"/>
<path d="M961.16 12C961.16 11.4477 960.712 11 960.16 11C959.608 11 959.16 11.4477 959.16 12H960.16H961.16ZM959.453 26.7071C959.844 27.0976 960.477 27.0976 960.867 26.7071L967.231 20.3431C967.622 19.9526 967.622 19.3195 967.231 18.9289C966.841 18.5384 966.208 18.5384 965.817 18.9289L960.16 24.5858L954.503 18.9289C954.113 18.5384 953.48 18.5384 953.089 18.9289C952.699 19.3195 952.699 19.9526 953.089 20.3431L959.453 26.7071ZM960.16 12H959.16V26H960.16H961.16V12H960.16Z" fill="#E3EDF9"/>
<defs>
<linearGradient id="paint0_linear_6046_1839" x1="960.16" y1="0" x2="960.16" y2="38" gradientUnits="userSpaceOnUse">
<stop stop-color="#1669B1"/>
<stop offset="1" stop-color="#1D3FA3"/>
</linearGradient>
</defs>
</svg>
