<svg width="2420" height="561" viewBox="0 0 2420 561" fill="none" xmlns="http://www.w3.org/2000/svg">
<path d="M1771.5 211.273C1779.56 195.425 1809.06 123.741 1819.8 117.999C1826.43 114.454 1848.69 114.84 1855.93 116.977C1859.4 117.999 1862.52 120.255 1864.23 123.49C1866.11 127.05 1866.66 131.442 1866.91 135.402C1867.62 146.422 1867.5 230.877 1865.55 237.183C1861.41 241.645 1842.65 241.257 1838.38 238.555C1835.41 233.21 1836.54 177.111 1836.53 166.279C1836.73 159.327 1836.54 152.509 1836.38 145.559L1829.74 160.379C1819.88 182.13 1808.47 203.459 1798 224.862C1790.26 240.664 1782.68 241.502 1766.34 240.355C1759.34 239.863 1757.68 239.665 1751.13 236.571C1747.27 231.407 1738.53 212.465 1735.23 205.711L1705.89 145.884C1705.66 155.956 1706.48 234.268 1704.74 238.323C1699.7 241.857 1680.65 241.553 1675.69 236.996C1673.29 203.267 1676.14 164.912 1675.4 130.791C1675.23 122.963 1681.72 118.255 1688.76 116.251C1697.12 116.042 1705.21 115.663 1713.61 116.114C1728.19 116.897 1730.44 123.003 1736.07 134.919C1739.16 141.464 1742.26 148.153 1745.29 154.683L1771.5 211.273Z" fill="white"/>
<path d="M1335.67 316.772C1359.2 316.731 1441.39 313.903 1457.26 319.667C1464.7 322.369 1469.48 325.894 1472.84 333.145C1477.74 343.711 1478.12 370.107 1474 381.089C1470.38 390.762 1462.56 395.532 1453.6 399.56C1459.85 407.533 1467.24 414.855 1473.65 422.704C1477.49 427.416 1484.34 434.641 1478.82 440.157C1475.03 441.27 1463.3 440.786 1458.75 440.727C1452.33 440.988 1449.23 441.02 1444.7 435.968C1435.45 425.64 1427.09 413.896 1418.62 402.875L1363.98 402.909C1363.82 412.334 1366.42 431.306 1361.79 438.268C1361.11 439.301 1358.7 440.891 1356.87 440.858C1350.92 440.749 1338.8 442.295 1333.92 438.988C1332.75 438.2 1332.71 436.188 1332.67 434.802C1332.16 415.368 1332.64 395.783 1332.66 376.305C1332.68 358.303 1332.68 339.952 1333.21 321.966C1333.26 320.21 1334.55 318.121 1335.67 316.772ZM1437.15 346.444C1413.87 343.404 1388.54 345.11 1364.85 345.119L1364.79 376.288C1378.4 376.345 1432.58 378.814 1441.92 374.419C1442.08 374.344 1442.25 374.281 1442.41 374.208C1442.5 374.164 1442.6 374.113 1442.69 374.066C1444.86 368.165 1446.14 347.618 1437.15 346.444Z" fill="white"/>
<path d="M1049.9 317.241C1056.59 315.094 1146.73 316.699 1160.15 316.722L1160.24 344.873C1138.68 345.445 1108.73 345.305 1089.75 345.115C1046.51 343.988 1041.22 343.821 1043.16 388.246C1043.08 394.66 1044.51 408.167 1052.53 409.78C1072.16 413.723 1094.39 411.405 1114.34 411.957C1134.43 412.512 1131.16 405.774 1130.83 389.009C1120.56 388.863 1082.48 391.771 1075.6 386.981C1075.07 361.317 1075.19 364.437 1102.44 364.538C1110.85 364.569 1155.27 363.472 1159.07 365.803C1163.16 372.223 1160.56 409.708 1160.18 418.882C1159.01 446.959 1121.47 440.81 1101.21 440.707C1066.91 440.534 1010.9 449.766 1012.27 398.333C1013.22 362.813 1002.72 324.426 1049.9 317.241Z" fill="white"/>
<path d="M1562.59 116.451C1566.95 114.892 1653.39 115.279 1657.69 117.743C1659.81 124.262 1659.6 134.189 1659.13 141.03C1652.37 150.763 1571.77 138.203 1558.78 148.504C1552.17 157.745 1548.83 163.349 1561.49 164.597C1575.84 166.01 1650.88 160.339 1658.19 167.501C1658.88 173.772 1659.59 181.526 1657.27 187.495C1652.69 191.464 1629.25 190.183 1622.35 190.179L1567.75 190.112C1564.32 190.071 1556.61 189.597 1553.87 190.849C1549 200.063 1559.28 210.684 1569.7 211.162C1599.43 212.525 1629.26 211.022 1659.03 211.686C1659.31 218.962 1660.7 232.945 1657.39 238.771C1652.24 242.252 1573 239.659 1559.98 239.737C1538.46 239.865 1522.03 222.164 1521.95 200.356C1521.83 164.33 1513.52 119.761 1562.59 116.451Z" fill="white"/>
<path d="M1211.53 317.788C1220.34 316.136 1240.11 316.655 1250.04 316.654L1316.18 316.697C1316.38 322.185 1318.4 338.999 1314.9 342.694C1310.3 347.546 1244.95 344.815 1234.52 344.849C1227.99 344.87 1219.17 345.564 1214.38 350.624C1211.27 353.906 1211.48 357.982 1211.67 362.157C1217.01 369.295 1299.66 359.712 1312.48 364.986C1316.45 369.583 1315.02 382.907 1314.83 389.465C1288.98 390.358 1258.69 389.632 1232.5 389.644L1210.58 389.81C1211.87 401.785 1212.06 410.01 1226.74 411.417C1237.35 412.434 1247.86 411.954 1258.5 411.934L1316.05 411.864C1316.35 419.091 1318.46 435.105 1312.73 440.237C1298.57 441.738 1281 440.971 1266.58 440.828C1215.79 440.325 1176.2 450.608 1178.91 382.321C1180.07 353 1175.05 327.632 1211.53 317.788Z" fill="white"/>
<path d="M2269.02 317.21C2270.83 317.037 2272.65 316.923 2274.47 316.87C2285.28 316.628 2374.73 315.42 2377.85 318.396C2380.47 323.559 2380.57 336.823 2379.13 342.354C2371.48 349.073 2296.78 342.447 2283.51 345.498C2274.67 345.84 2275.08 363.782 2282.76 364.617C2309.26 367.497 2346.41 358.696 2370.96 369.276C2385.22 375.422 2383.91 392.134 2384.06 404.184C2384.37 427.796 2378.86 434.745 2356.3 440.687C2340.61 441.226 2324.72 440.748 2309.01 440.769C2291.44 440.793 2273.72 441.275 2256.16 440.769C2254.03 440.707 2249.62 440.902 2248.2 439.271C2244.55 435.079 2245.64 423.495 2246.04 418.064C2246.14 416.649 2246.16 414.877 2247.3 413.833C2255.65 406.196 2340.9 418.039 2350.95 409.094C2352.45 407.757 2353.03 404.054 2353.12 402.082C2353.32 397.849 2352.82 394.376 2349.86 391.119C2345.81 388.838 2290.8 390.7 2281.29 390.375C2241.68 389.017 2245.72 369.205 2246.06 337.136C2253.55 324.627 2255.49 322.587 2269.02 317.21Z" fill="white"/>
<path d="M2083.65 116.074C2098.1 115.199 2181.81 114.408 2189.6 118.016C2191.91 121.98 2190.8 139.137 2190.64 144.241C2177.89 144.588 2097.5 142.67 2093.24 145.295C2093.14 145.359 2093.04 145.427 2092.93 145.49C2092.12 145.983 2091.45 146.432 2090.89 147.23C2089.18 149.705 2087.88 154.274 2088.58 157.198C2092.28 172.804 2162.75 156.95 2182.29 169.454C2188.15 173.203 2191.98 178.887 2193.43 185.682C2195.9 197.294 2195.14 217.914 2188.6 227.81C2183.22 235.948 2174.44 238.365 2165.47 240.233C2140.26 240.351 2115.05 240.286 2089.84 240.038C2082.63 240.032 2075.26 241.174 2068.12 240.906C2065.81 240.82 2063.17 240.407 2061.18 239.202C2059.01 237.882 2057.71 235.679 2057.14 233.244C2056.04 228.614 2055.9 218.492 2058.45 214.367C2062.64 207.602 2143.05 214.018 2155.11 211.203C2157.93 210.545 2159.9 208.855 2161.35 206.383C2162.95 203.611 2163.32 200.301 2162.39 197.242C2161.55 194.477 2158.05 190.344 2155.31 190.206C2130.35 189.111 2106.31 191.613 2081.24 189.486C2054.32 187.203 2051.72 149.036 2061.49 130.307C2066.35 120.981 2074.06 118.532 2083.65 116.074Z" fill="white"/>
<path d="M1526.15 316.878C1536.73 315.705 1622.35 315.869 1626.12 318.566C1626.9 319.127 1627.32 321.593 1627.46 322.594C1628.22 327.679 1629.05 339.009 1626.03 343.077C1610.62 351.075 1543.91 337.644 1526.93 350.106C1524.43 351.934 1523.18 359.606 1523.43 362.856C1529.95 367.976 1612.89 361.333 1623.34 365.005C1627.17 369.605 1625.75 382.985 1625.56 389.488C1597.96 389.701 1570.35 389.755 1542.75 389.649C1539.26 389.751 1526.39 388.254 1524.61 391.111C1518.87 400.353 1528.46 410.99 1538.32 411.565C1564.53 413.094 1591.07 411.176 1617.35 411.485C1631.53 411.64 1626.8 424.331 1627.1 434.115C1627.18 437.016 1625.3 438.381 1623.3 440.073C1613.05 442.823 1526.34 441.673 1512.6 436.864C1484.13 426.903 1490.77 368.346 1493.86 344.418C1495.77 329.634 1510.17 320.997 1526.15 316.878Z" fill="white"/>
<path d="M1039.65 116.261C1051.08 112.901 1121.23 117.4 1139.04 116.643C1145.94 116.35 1144.96 136.535 1143.2 142.026C1137.56 148.046 1063.09 142.453 1050.5 144.343C1044.72 145.21 1040.26 153.191 1041.51 158.508C1044.39 167.398 1055.67 163.508 1062.89 164.367C1085.91 167.109 1123.57 156.122 1141.2 174.028C1143.59 176.452 1146.68 183.912 1146.93 186.847C1149.17 212.945 1151.72 234.24 1120.66 240.205C1086.02 240.238 1051.06 240.861 1016.45 239.944C1014.01 239.88 1012.97 238.266 1011.41 236.663C1010.85 233.715 1009.91 214.187 1012.79 213.207C1026.87 208.401 1107.48 214.948 1115.04 209.496C1118.93 204.428 1119.54 192.178 1110.75 190.593C1088.32 186.547 1039.02 197.023 1021.26 183.327C1015.59 178.919 1011.95 172.39 1011.19 165.243C1008.37 140.496 1010.28 119.367 1039.65 116.261Z" fill="white"/>
<path d="M1655.49 316.806C1664.33 316.613 1672.92 316.325 1681.77 316.671C1693.74 317.139 1697.49 323.703 1704.48 332.114C1710.38 339.219 1716.13 346.361 1721.96 353.469C1737.06 371.746 1752.3 389.913 1767.66 407.968C1768.01 379.625 1767.14 350.938 1767.94 322.59C1767.98 321.167 1768.96 319.584 1769.83 318.478C1773.8 315.626 1793.47 315.48 1797.11 319.706C1799.05 327.308 1797.65 349.756 1797.75 359.318C1797.64 380.072 1798.36 400.895 1797.78 421.64C1797.41 434.921 1793.93 437.068 1782.08 440.575C1744.17 441.219 1750.59 437.122 1725.62 408.378C1708.7 388.9 1691.77 365.238 1674.12 346.64C1674.12 358.689 1675.69 434.193 1672.62 439.079C1668.77 442.408 1647.91 441.889 1643.46 437.367C1642.61 423.872 1641.54 335.465 1644.16 328.066C1646.36 321.848 1649.67 319.551 1655.49 316.806Z" fill="white"/>
<path d="M1241.57 116.284C1249.38 115.072 1336.32 115.075 1341.87 116.964C1343.96 117.674 1344.92 119.097 1345.88 120.993C1346.25 125.68 1347.51 138.602 1345.45 142.28C1337.24 147.98 1269.99 142.264 1255.6 144.692C1245.54 144.29 1241.94 161.842 1252.35 163.935C1261.03 165.678 1273.88 163.968 1282.76 164.321C1299.37 164.98 1326.3 160.765 1340.37 169.869C1354.45 178.981 1354.16 216.114 1345.08 228.991C1339.21 237.102 1330.07 238.869 1321.16 240.244L1254.27 240.342C1246.27 240.351 1224.91 240.936 1218.29 239.37C1213.91 234.916 1214 218.214 1216.62 213.751C1225.95 206.707 1304.65 216.983 1318.14 208.508C1319.6 207.588 1325.51 192.025 1310.96 190.152C1267.11 184.508 1203.35 212.51 1215.68 138.59C1217.86 125.488 1228.84 118.831 1241.57 116.284Z" fill="white"/>
<path d="M1954.03 116.072C1972.93 115.847 1981.18 114.117 1991.74 132.094C2010.95 164.803 2029.42 197.956 2048.12 230.95C2049.53 233.445 2049.92 235.348 2049.31 238.03C2044.55 241.311 2041.34 239.87 2036.45 240.472C2014.1 243.225 2012.46 232.067 2003.22 215.386L1976.25 215.49L1923.17 215.491C1914.09 230.671 1914.39 242.879 1892.72 240.423C1887.76 239.86 1881.64 241.482 1877.26 237.689C1875.83 231.54 1934.67 136.151 1942.97 122.359C1944.74 119.415 1950.68 117.201 1954.03 116.072ZM1962.96 146.508C1954.72 161.205 1946.27 175.789 1937.64 190.255L1965.75 190.227L1989.62 190.16C1986.01 183.308 1967.61 149.467 1962.96 146.508Z" fill="white"/>
<path d="M2086.4 316.855C2093.14 316.387 2104.54 316.692 2111.64 316.644C2113.73 317.686 2119.66 321.181 2120.59 322.753C2129.04 337.08 2185.1 428.867 2184.97 437.6C2181.06 442.793 2156 442.717 2151.41 436.566C2146.69 430.228 2142.82 422.16 2138.79 415.152L2115.25 415.153C2097.13 415.412 2078.6 415.191 2060.45 415.166C2056.2 421.878 2051.9 433.469 2046.24 437.923C2040.58 442.387 2018.88 443.109 2014.12 436.813C2014.34 433.421 2018.18 425.013 2020.17 422.282C2034.37 402.782 2069.83 326.829 2086.4 316.855ZM2099.08 347.56C2092.99 356.006 2079.82 380.035 2074.23 389.886L2102.25 389.843L2125.45 389.807C2121.02 382.515 2103.7 350.947 2099.08 347.56Z" fill="white"/>
<path d="M1850.99 317.457C1859.83 316.197 1879.05 316.682 1888.52 316.687L1955.1 316.795C1955.53 325.135 1955.21 336.501 1955.23 345.077C1925.99 345.422 1893.71 343.572 1864.56 346.349C1856.39 347.127 1851.87 350.865 1847.47 357.557C1846.71 422.778 1846.83 411.97 1911.5 411.85L1955.28 411.834C1955.48 418.117 1957.5 436.296 1951.83 440.188C1934.47 441.909 1913.77 440.593 1897.19 440.797C1846.63 441.418 1812.33 445.889 1815.7 381.255C1817.42 348.19 1810.69 329.116 1850.99 317.457Z" fill="white"/>
<path d="M1362.82 115.958L1513.29 115.98C1513.26 125.512 1513.37 135.044 1513.62 144.573L1452.96 144.787L1453 178.75C1453.02 194.954 1454.03 219.753 1452.33 236.238C1451.72 242.059 1429.11 241.251 1423.72 238.651C1423.22 238.037 1422.62 237.3 1421.92 236.44C1420.69 210.266 1421.36 169.302 1421.35 144.757C1401.3 144.177 1381.21 144.983 1360.97 144.244C1360.83 137.766 1359.66 121.074 1362.82 115.958Z" fill="white"/>
<path d="M2198.91 316.828L2227.41 316.733L2227.6 397.182C2227.61 406.95 2228.19 430.237 2227.17 439.054C2222.13 441.873 2200.46 442.803 2196.36 437.031C2195.71 431.315 2195.75 425.798 2195.78 420.054C2195.96 387.674 2195.32 355.22 2196.16 322.863C2196.21 320.826 2197.74 318.433 2198.91 316.828Z" fill="white"/>
<path d="M1971.15 435.427C1972.36 430.962 1971.47 416.971 1971.73 412.485C1972.52 399.083 1969.72 326.831 1973.3 318.773C1978.16 315.525 1996.11 316.761 2002.89 316.885C2004.18 353.808 2002.93 396.726 2003.21 434.294C2002.62 438.084 2003.26 436.787 2000.68 439.558C1994.2 442.305 1982.53 441.709 1975.5 440.131C1973.3 439.638 1972.31 437.321 1971.15 435.427Z" fill="white"/>
<path d="M1167.48 116.228C1173.91 116.041 1196.81 113.168 1196.24 121.84C1195.16 138.111 1199.81 231.564 1195.18 240.03C1189.51 240.206 1170.11 242.007 1166.88 237.63C1165.23 225.772 1164.24 121.349 1167.48 116.228Z" fill="white"/>
<path d="M638.78 115.381C650.542 112.704 662.834 116.574 670.943 125.505C679.051 134.437 681.717 147.045 677.919 158.494C674.121 169.944 664.447 178.458 652.608 180.773C634.689 184.276 617.274 172.75 613.496 154.886C609.719 137.022 620.976 119.433 638.78 115.381Z" fill="white"/>
<path d="M348.54 0C351.349 0.629149 360.61 1.169 363.948 1.52246C375.502 2.74594 385.428 4.32076 396.59 7.0791C460.06 22.763 519.352 60.8712 555.622 115.815C561.633 124.92 569.748 136.174 574.592 145.988C584.217 165.489 588.614 186.817 606.888 200.941C624.937 214.892 639.671 213.244 660.265 210.599C704.911 204.865 753.488 217.089 789.121 244.995C824.145 272.724 846.818 313.151 852.214 357.497C863.211 449.184 796.447 530.191 705.46 541.044C652.64 547.345 600.189 531.361 561.283 494.793C551.086 485.209 530.584 478.148 516.46 479.973C497.416 483.132 481.086 498.457 464.558 507.431C433.639 524.422 396.197 538.403 360.793 542.211C281.176 550.775 205.885 534.111 141.928 484.148C86.3756 440.752 46.3728 374.55 38.2837 304.318C30.5251 232.771 51.5016 161.071 96.5991 104.987C137.107 54.3591 193.918 19.3424 257.35 5.90527C273.354 2.50532 286.461 1.8276 302.367 0H348.54ZM682 276C655.5 276 630.072 286.467 611.313 305.119C592.552 323.774 582 349.089 582 375.5C582 401.911 592.552 427.226 611.313 445.881C630.072 464.533 655.5 475 682 475V449.557C662.208 449.557 643.24 441.739 629.265 427.843C615.292 413.949 607.455 395.12 607.455 375.5C607.455 355.88 615.292 337.051 629.265 323.157C643.24 309.261 662.208 301.443 682 301.443V276ZM686 301.443C705.792 301.443 724.761 309.261 738.736 323.157C752.708 337.051 760.545 355.88 760.545 375.5C760.545 395.12 752.708 413.949 738.736 427.843C724.761 441.739 705.792 449.557 686 449.557V475C712.501 475 737.928 464.533 756.687 445.881C775.448 427.226 786 401.911 786 375.5C786 349.089 775.448 323.774 756.687 305.119C737.928 286.467 712.501 276 686 276V301.443ZM291.307 127.601C278.091 169.516 260.49 209.225 245.303 250.118C232.728 284.477 219.821 318.715 206.583 352.825C201.217 366.828 193.58 388.727 187.554 401.933L238.733 401.929C246.3 381.622 252.95 355.849 260.512 337.085L337.142 337.141L366.119 337.09L389.167 401.825C405.556 402.027 421.948 402.055 438.337 401.909C416.535 342.221 394.241 282.714 371.454 223.396L348.932 164.82C345.025 154.603 338.4 138.155 335.681 127.831L291.307 127.601ZM517.827 241.857C504.475 235.549 483.022 237.36 476.171 252.133C475.215 257.388 474.472 257.129 475.976 261.61C478.407 263.751 477.35 263.439 480.264 263.334C483.36 261.686 483.743 259.823 484.992 256.59C490.75 247.066 506.522 246.808 514.406 254.076C517.723 257.086 519.646 261.334 519.718 265.812C520.189 285.267 494.825 295.24 483.585 308.152C473.817 319.375 473.862 323.407 474.286 337.063C482.408 337.119 527.025 338.339 531.226 335.716C533.252 333.028 533.548 333.544 533.579 330.778C529.911 322.63 493.174 328.712 488.52 326.061C484.758 312.133 513.474 299.168 521.489 289.025C532.006 275.713 532.545 272.961 531.978 256.556C528.116 249.522 525.237 245.359 517.827 241.857ZM312.418 177.701C313.278 178.403 349.218 287.55 352.386 296.923L272.446 296.872C285.555 258.524 301.162 216.234 312.418 177.701Z" fill="white"/>
</svg>
